<svg width="40" height="40" viewBox="0 0 40 40" fill="none" xmlns="http://www.w3.org/2000/svg">
<rect width="40" height="40" rx="20" fill="url(#paint0_linear_351_3338)" fill-opacity="0.2"/>
<path d="M24.875 15.0625C26.1875 16.375 27 18.0938 27 19.9688C27 23.7812 23.8125 26.9062 19.9688 26.9062C18.8125 26.9062 17.6875 26.5938 16.6562 26.0625L13 27L13.9688 23.4062C13.375 22.375 13.0312 21.1875 13.0312 19.9375C13.0312 16.125 16.1562 13 19.9688 13C21.8438 13 23.5938 13.75 24.875 15.0625ZM19.9688 25.7188C23.1562 25.7188 25.8125 23.125 25.8125 19.9688C25.8125 18.4062 25.1562 16.9688 24.0625 15.875C22.9688 14.7812 21.5312 14.1875 20 14.1875C16.8125 14.1875 14.2188 16.7812 14.2188 19.9375C14.2188 21.0312 14.5312 22.0938 15.0938 23.0312L15.25 23.25L14.6562 25.375L16.8438 24.7812L17.0312 24.9062C17.9375 25.4375 18.9375 25.7188 19.9688 25.7188ZM23.1562 21.4062C23.3125 21.5 23.4375 21.5312 23.4688 21.625C23.5312 21.6875 23.5312 22.0312 23.375 22.4375C23.2188 22.8438 22.5312 23.2188 22.2188 23.25C21.6562 23.3438 21.2188 23.3125 20.125 22.8125C18.375 22.0625 17.25 20.3125 17.1562 20.2188C17.0625 20.0938 16.4688 19.2812 16.4688 18.4062C16.4688 17.5625 16.9062 17.1562 17.0625 16.9688C17.2188 16.7812 17.4062 16.75 17.5312 16.75C17.625 16.75 17.75 16.75 17.8438 16.75C17.9688 16.75 18.0938 16.7188 18.25 17.0625C18.375 17.4062 18.75 18.25 18.7812 18.3438C18.8125 18.4375 18.8438 18.5312 18.7812 18.6562C18.4688 19.3125 18.0938 19.2812 18.2812 19.5938C18.9688 20.75 19.625 21.1562 20.6562 21.6562C20.8125 21.75 20.9062 21.7188 21.0312 21.625C21.125 21.5 21.4688 21.0938 21.5625 20.9375C21.6875 20.75 21.8125 20.7812 21.9688 20.8438C22.125 20.9062 22.9688 21.3125 23.1562 21.4062Z" fill="url(#paint1_linear_351_3338)"/>
<defs>
<linearGradient id="paint0_linear_351_3338" x1="19.9804" y1="-2.82258" x2="19.9804" y2="37.1774" gradientUnits="userSpaceOnUse">
<stop stop-color="#F9F295"/>
<stop offset="0.326923" stop-color="#E0AA3E"/>
<stop offset="0.620192" stop-color="#F9F295"/>
<stop offset="0.884615" stop-color="#B88A44"/>
</linearGradient>
<linearGradient id="paint1_linear_351_3338" x1="20.1742" y1="10.871" x2="20.183" y2="29.4" gradientUnits="userSpaceOnUse">
<stop stop-color="#F9F295"/>
<stop offset="0.326923" stop-color="#E0AA3E"/>
<stop offset="0.620192" stop-color="#F9F295"/>
<stop offset="0.884615" stop-color="#B88A44"/>
</linearGradient>
</defs>
</svg>
