<svg width="16" height="16" viewBox="0 0 16 16" fill="none" xmlns="http://www.w3.org/2000/svg">
<mask id="mask0_2021_9330" style="mask-type:alpha" maskUnits="userSpaceOnUse" x="0" y="0" width="16" height="16">
<g clip-path="url(#clip0_2021_9330)">
<g clip-path="url(#clip1_2021_9330)">
<path d="M14.6685 14.667L11.2935 11.292M11.2935 11.292C11.8372 10.7507 12.2689 10.1074 12.5637 9.39905C12.8585 8.69068 13.0106 7.93112 13.0115 7.16385C13.0123 6.39659 12.8618 5.6367 12.5686 4.92769C12.2753 4.21868 11.8451 3.57448 11.3025 3.03198C10.7599 2.48947 10.1157 2.05932 9.40663 1.76615C8.69759 1.47299 7.93768 1.32256 7.17041 1.32349C6.40315 1.32442 5.64361 1.47669 4.93527 1.77158C4.22694 2.06646 3.58373 2.49817 3.04248 3.04199C1.96872 4.14019 1.37134 5.61752 1.37998 7.1534C1.38861 8.68929 2.00257 10.1598 3.08862 11.2459C4.17467 12.3319 5.64519 12.9459 7.18107 12.9545C8.71695 12.9631 10.1943 12.3658 11.2925 11.292H11.2935Z" stroke="#241E1B" stroke-width="2" stroke-linecap="round" stroke-linejoin="round"/>
</g>
</g>
</mask>
<g mask="url(#mask0_2021_9330)">
<rect width="16" height="16" fill="#100C35"/>
</g>
<defs>
<clipPath id="clip0_2021_9330">
<rect width="16" height="16" fill="white"/>
</clipPath>
<clipPath id="clip1_2021_9330">
<rect width="16" height="16" fill="white"/>
</clipPath>
</defs>
</svg>
