<svg width="20" height="20" viewBox="0 0 20 20" fill="none" xmlns="http://www.w3.org/2000/svg">
<path d="M7.19643 1.0885H1.42857C1.05381 1.0885 0.75 1.39231 0.75 1.76707V7.53493C0.75 7.90969 1.05381 8.2135 1.42857 8.2135H7.19643C7.57119 8.2135 7.875 7.90969 7.875 7.53493V1.76707C7.875 1.39231 7.57119 1.0885 7.19643 1.0885Z" stroke="white" stroke-width="1.5" stroke-linecap="round" stroke-linejoin="round"/>
<path d="M17.714 1.0885H11.9461C11.5714 1.0885 11.2676 1.39231 11.2676 1.76707V7.53493C11.2676 7.90969 11.5714 8.2135 11.9461 8.2135H17.714C18.0887 8.2135 18.3926 7.90969 18.3926 7.53493V1.76707C18.3926 1.39231 18.0887 1.0885 17.714 1.0885Z" stroke="white" stroke-width="1.5" stroke-linecap="round" stroke-linejoin="round"/>
<path d="M7.19643 11.6063H1.42857C1.05381 11.6063 0.75 11.9101 0.75 12.2849V18.0528C0.75 18.4275 1.05381 18.7313 1.42857 18.7313H7.19643C7.57119 18.7313 7.875 18.4275 7.875 18.0528V12.2849C7.875 11.9101 7.57119 11.6063 7.19643 11.6063Z" stroke="white" stroke-width="1.5" stroke-linecap="round" stroke-linejoin="round"/>
<path d="M17.714 11.6063H11.9461C11.5714 11.6063 11.2676 11.9101 11.2676 12.2849V18.0528C11.2676 18.4275 11.5714 18.7313 11.9461 18.7313H17.714C18.0887 18.7313 18.3926 18.4275 18.3926 18.0528V12.2849C18.3926 11.9101 18.0887 11.6063 17.714 11.6063Z" stroke="white" stroke-width="1.5" stroke-linecap="round" stroke-linejoin="round"/>
<path d="M0.75 5.15991H7.875" stroke="white" stroke-width="1.5" stroke-linecap="round" stroke-linejoin="round"/>
<path d="M11.2676 5.15991H18.3926" stroke="white" stroke-width="1.5" stroke-linecap="round" stroke-linejoin="round"/>
<path d="M11.2676 15.6777H18.3926" stroke="white" stroke-width="1.5" stroke-linecap="round" stroke-linejoin="round"/>
<path d="M0.75 15.6777H7.875" stroke="white" stroke-width="1.5" stroke-linecap="round" stroke-linejoin="round"/>
</svg>
