<svg width="32" height="33" viewBox="0 0 32 33" fill="none" xmlns="http://www.w3.org/2000/svg">
<mask id="mask0_2021_9309" style="mask-type:alpha" maskUnits="userSpaceOnUse" x="0" y="0" width="32" height="33">
<g clip-path="url(#clip0_2021_9309)">
<path fill-rule="evenodd" clip-rule="evenodd" d="M19.5548 3.60705C19.792 3.48824 20.0665 3.46849 20.3182 3.55213C20.5699 3.63577 20.778 3.81595 20.8968 4.05305L23.8308 9.92305C25.6348 10.0611 26.7668 10.4161 27.4978 11.3191C28.6978 12.8041 28.2188 15.0391 27.2618 19.5091L26.6898 22.1761C26.0398 25.2061 25.7168 26.7211 24.6168 27.6111C23.5168 28.5001 21.9668 28.5001 18.8688 28.5001H13.1348C10.0368 28.5001 8.48685 28.5001 7.38885 27.6101C6.28685 26.7211 5.96185 25.2071 5.31385 22.1761L4.74185 19.5091C3.78485 15.0391 3.30485 12.8041 4.50585 11.3191C5.23585 10.4151 6.36885 10.0611 8.17285 9.92305L11.1068 4.05305C11.2254 3.81568 11.4334 3.63513 11.6851 3.55111C11.9367 3.4671 12.2115 3.4865 12.4488 3.60505C12.6862 3.7236 12.8668 3.93159 12.9508 4.18327C13.0348 4.43494 13.0154 4.70968 12.8968 4.94705L10.4498 9.84005C11.0928 9.83605 11.7978 9.83305 12.5648 9.83305H19.4388C20.2058 9.83305 20.9108 9.83505 21.5538 9.84005L19.1068 4.94705C18.9888 4.70991 18.9697 4.43562 19.0537 4.18439C19.1377 3.93316 19.3179 3.72552 19.5548 3.60705ZM9.66985 16.5001C9.66985 16.2348 9.7752 15.9805 9.96274 15.7929C10.1503 15.6054 10.4046 15.5001 10.6698 15.5001H21.3358C21.6011 15.5001 21.8554 15.6054 22.043 15.7929C22.2305 15.9805 22.3358 16.2348 22.3358 16.5001C22.3358 16.7653 22.2305 17.0196 22.043 17.2072C21.8554 17.3947 21.6011 17.5001 21.3358 17.5001H10.6698C10.4046 17.5001 10.1503 17.3947 9.96274 17.2072C9.7752 17.0196 9.66985 16.7653 9.66985 16.5001ZM13.3358 19.5001C13.0706 19.5001 12.8163 19.6054 12.6287 19.7929C12.4412 19.9805 12.3358 20.2348 12.3358 20.5001C12.3358 20.7653 12.4412 21.0196 12.6287 21.2072C12.8163 21.3947 13.0706 21.5001 13.3358 21.5001H18.6698C18.9351 21.5001 19.1894 21.3947 19.377 21.2072C19.5645 21.0196 19.6698 20.7653 19.6698 20.5001C19.6698 20.2348 19.5645 19.9805 19.377 19.7929C19.1894 19.6054 18.9351 19.5001 18.6698 19.5001H13.3358Z" fill="#FF5100"/>
</g>
</mask>
<g mask="url(#mask0_2021_9309)">
<rect width="32" height="33" fill="#7B68EE"/>
</g>
<defs>
<clipPath id="clip0_2021_9309">
<rect width="32" height="33" fill="white"/>
</clipPath>
</defs>
</svg>
