<svg width="22" height="22" viewBox="0 0 22 22" fill="none" xmlns="http://www.w3.org/2000/svg">
<path d="M10.6667 10.6667C9.20002 10.6667 7.94442 10.1444 6.90002 9.1C5.85552 8.0556 5.33332 6.8 5.33332 5.3333C5.33332 3.86666 5.85552 2.61111 6.90002 1.56666C7.94442 0.52222 9.20002 0 10.6667 0C12.1333 0 13.3889 0.52222 14.4333 1.56666C15.4778 2.61111 16 3.86666 16 5.3333C16 6.8 15.4778 8.0556 14.4333 9.1C13.3889 10.1444 12.1333 10.6667 10.6667 10.6667ZM0 18.6667V17.6C0 16.8444 0.19467 16.1502 0.584 15.5173C0.97334 14.8844 1.48978 14.4009 2.13334 14.0667C3.51112 13.3778 4.91112 12.8613 6.33332 12.5173C7.75552 12.1733 9.20002 12.0009 10.6667 12C12.1333 11.9991 13.5778 12.1716 15 12.5173C16.4222 12.8631 17.8222 13.3796 19.2 14.0667C19.8444 14.4 20.3613 14.8836 20.7507 15.5173C21.14 16.1511 21.3342 16.8453 21.3333 17.6V18.6667C21.3333 19.4 21.0724 20.028 20.5507 20.5507C20.0289 21.0733 19.4009 21.3342 18.6667 21.3333H2.66667C1.93334 21.3333 1.30578 21.0724 0.784 20.5507C0.26223 20.0289 0.00089 19.4009 0 18.6667Z" fill="#7B68EE"/>
</svg>
