<svg width="30" height="27" viewBox="0 0 30 27" fill="none" xmlns="http://www.w3.org/2000/svg">
<path fill-rule="evenodd" clip-rule="evenodd" d="M2 2.66667C2 1.95943 2.28096 1.28115 2.78105 0.78105C3.28115 0.28096 3.95943 7.45344e-09 4.66667 7.45344e-09C5.42332 -3.99925e-05 6.17131 0.16092 6.86096 0.47218C7.55062 0.78345 8.16615 1.2379 8.66672 1.80534C9.16722 1.2379 9.78272 0.78345 10.4724 0.47218C11.162 0.16092 11.91 -3.99925e-05 12.6667 7.45344e-09C13.3739 7.45344e-09 14.0522 0.28096 14.5523 0.78105C15.0524 1.28115 15.3333 1.95943 15.3333 2.66667C15.3333 3.63867 15.0733 4.54934 14.62 5.33334H16C16.3536 5.33334 16.6927 5.47381 16.9428 5.72386C17.1928 5.97391 17.3333 6.31305 17.3333 6.66667V8H22.6667C23.5421 8 24.409 8.1724 25.2179 8.5075C26.0267 8.8425 26.7616 9.3336 27.3807 9.9526C27.9998 10.5717 28.4908 11.3066 28.8258 12.1154C29.1609 12.9243 29.3333 13.7912 29.3333 14.6667V20C29.3337 20.8584 29.0579 21.6941 28.5467 22.3837C28.0355 23.0733 27.3161 23.5801 26.4947 23.8293C26.2501 24.636 25.757 25.3448 25.0857 25.8546C24.4144 26.3643 23.5992 26.649 22.7565 26.6679C21.9138 26.6868 21.0866 26.439 20.3931 25.9599C19.6996 25.4808 19.1752 24.7949 18.8947 24H10.44C10.1595 24.7949 9.63502 25.4808 8.94152 25.9599C8.24803 26.439 7.42088 26.6868 6.57818 26.6679C5.73547 26.649 4.92028 26.3643 4.24897 25.8546C3.57766 25.3448 3.08454 24.636 2.84001 23.8293C2.01835 23.5804 1.2986 23.0736 0.78716 22.384C0.27573 21.6944 -0.000259816 20.8586 1.83534e-07 20V6.66667C1.83534e-07 6.31305 0.14048 5.97391 0.39053 5.72386C0.64058 5.47381 0.97972 5.33334 1.33334 5.33334H2.71334C2.24566 4.52245 1.99964 3.60276 2 2.66667ZM4.66667 2.66667C5.37392 2.66667 6.05219 2.94762 6.55229 3.44772C7.05239 3.94782 7.33334 4.62609 7.33334 5.33334C6.62609 5.33334 5.94782 5.05239 5.44772 4.55229C4.94762 4.05219 4.66667 3.37391 4.66667 2.66667ZM10 5.33334C10.7072 5.33334 11.3855 5.05239 11.8856 4.55229C12.3857 4.05219 12.6667 3.37391 12.6667 2.66667C11.9594 2.66667 11.2811 2.94762 10.781 3.44772C10.2809 3.94782 10 4.62609 10 5.33334ZM18.8947 21.3333H17.3333V10.6667H22.6667C23.7275 10.6667 24.7449 11.0881 25.4951 11.8382C26.2452 12.5884 26.6667 13.6058 26.6667 14.6667V20C26.6666 20.3536 26.5261 20.6927 26.276 20.9427C25.9351 20.2286 25.3901 19.6317 24.7099 19.2274C24.0297 18.8231 23.2449 18.6296 22.4548 18.6714C21.6646 18.7133 20.9046 18.9885 20.2709 19.4623C19.6372 19.9361 19.1582 20.5873 18.8947 21.3333ZM5.724 21.724C5.847 21.5967 5.99413 21.4951 6.1568 21.4252C6.31947 21.3553 6.49443 21.3185 6.67147 21.317C6.84851 21.3155 7.02408 21.3492 7.18794 21.4162C7.35181 21.4833 7.50067 21.5823 7.62586 21.7075C7.75106 21.8327 7.85006 21.9815 7.9171 22.1454C7.98414 22.3093 8.01788 22.4848 8.01634 22.6619C8.0148 22.8389 7.97802 23.0139 7.90814 23.1765C7.83826 23.3392 7.73668 23.4863 7.60934 23.6093C7.35787 23.8522 7.02107 23.9866 6.67147 23.9836C6.32187 23.9805 5.98746 23.8403 5.74025 23.5931C5.49304 23.3459 5.35281 23.0115 5.34977 22.6619C5.34673 22.3123 5.48113 21.9755 5.724 21.724ZM21.3333 22.6667C21.3333 22.313 21.4738 21.9739 21.7238 21.7239C21.9739 21.4738 22.313 21.3333 22.6667 21.3333C23.0203 21.3333 23.3594 21.4738 23.6095 21.7239C23.8595 21.9739 24 22.313 24 22.6667C24 23.0203 23.8595 23.3594 23.6095 23.6095C23.3594 23.8595 23.0203 24 22.6667 24C22.313 24 21.9739 23.8595 21.7238 23.6095C21.4738 23.3594 21.3333 23.0203 21.3333 22.6667Z" fill="#7B68EE"/>
</svg>
