<svg width="1920" height="221" viewBox="0 0 1920 221" fill="none" xmlns="http://www.w3.org/2000/svg">
<g clip-path="url(#clip0_2021_8343)">
<rect width="1920" height="1" fill="#EEEEEE"/>
<g clip-path="url(#clip1_2021_8343)">
<path d="M232.798 78.9427H176.481C174.875 72.3094 171.913 66.4333 167.597 61.3142C163.28 56.1229 157.909 51.7248 151.485 48.1198C145.06 44.5148 137.732 41.8111 129.5 40.0086C121.368 38.134 112.585 37.1967 103.148 37.1967C86.3835 37.1967 71.5262 40.2249 58.5763 46.2813C45.6263 52.2656 35.4872 61.0618 28.159 72.6699C20.8307 84.206 17.1666 98.3016 17.1666 114.957C17.1666 131.9 20.8307 146.176 28.159 157.784C35.5876 169.32 45.7267 178.044 58.5763 183.957C71.5262 189.797 86.3333 192.717 102.998 192.717C112.233 192.717 120.866 191.852 128.897 190.121C137.029 188.319 144.307 185.687 150.732 182.226C157.257 178.765 162.728 174.511 167.145 169.464C171.662 164.417 174.774 158.649 176.481 152.16L232.798 152.377C230.69 162.903 226.122 172.781 219.095 182.01C212.169 191.239 203.084 199.386 191.84 206.452C180.597 213.446 167.446 218.925 152.388 222.891C137.33 226.784 120.616 228.731 102.245 228.731C75.1402 228.731 50.9469 224.225 29.6648 215.212C8.38272 206.199 -8.38193 193.185 -20.6292 176.17C-32.8764 159.154 -39 138.75 -39 114.957C-39 91.0915 -32.8262 70.6872 -20.4786 53.7436C-8.13096 36.728 8.68388 23.7139 29.966 14.7014C51.248 5.68888 75.3409 1.18262 102.245 1.18262C119.411 1.18262 135.372 2.91302 150.129 6.37383C164.886 9.83464 178.037 14.9177 189.581 21.623C201.126 28.2562 210.613 36.4036 218.041 46.065C225.57 55.6543 230.489 66.6135 232.798 78.9427Z" fill="white"/>
<path d="M293.143 4.21083H347.804V76.4552C347.804 85.8282 350.063 93.2545 354.58 98.7342C359.198 104.214 366.024 108.143 375.059 110.523C384.094 112.902 395.337 114.091 408.789 114.091C414.812 114.091 421.287 113.947 428.214 113.659C435.241 113.298 442.319 112.83 449.446 112.253C456.574 111.604 463.4 110.847 469.925 109.982C476.45 109.044 482.273 108.035 487.392 106.954V139.615C482.273 140.769 476.551 141.814 470.226 142.751C463.902 143.689 457.226 144.482 450.199 145.131C443.172 145.78 436.145 146.284 429.118 146.645C422.091 147.005 415.314 147.185 408.789 147.185C385.198 147.185 364.719 144.77 347.352 139.939C330.086 135.037 316.734 127.394 307.298 117.012C297.862 106.629 293.143 93.1103 293.143 76.4552V4.21083ZM478.207 4.21083H533.169V225.703H478.207V4.21083Z" fill="white"/>
<path d="M640.759 225.703H581.129L689.698 4.21083H758.664L867.383 225.703H807.753L725.385 49.6339H722.976L640.759 225.703ZM642.716 138.858H805.343V171.087H642.716V138.858Z" fill="white"/>
<path d="M1157.48 78.9427H1101.16C1099.55 72.3094 1096.59 66.4333 1092.27 61.3142C1087.96 56.1229 1082.59 51.7248 1076.16 48.1198C1069.74 44.5148 1062.41 41.8111 1054.18 40.0086C1046.05 38.134 1037.26 37.1967 1027.83 37.1967C1011.06 37.1967 996.204 40.2249 983.255 46.2813C970.305 52.2656 960.165 61.0618 952.837 72.6699C945.509 84.206 941.845 98.3016 941.845 114.957C941.845 131.9 945.509 146.176 952.837 157.784C960.266 169.32 970.405 178.044 983.255 183.957C996.204 189.797 1011.01 192.717 1027.68 192.717C1036.91 192.717 1045.54 191.852 1053.58 190.121C1061.71 188.319 1068.99 185.687 1075.41 182.226C1081.94 178.765 1087.41 174.511 1091.82 169.464C1096.34 164.417 1099.45 158.649 1101.16 152.16L1157.48 152.377C1155.37 162.903 1150.8 172.781 1143.77 182.01C1136.85 191.239 1127.76 199.386 1116.52 206.452C1105.28 213.446 1092.12 218.925 1077.07 222.891C1062.01 226.784 1045.29 228.731 1026.92 228.731C999.818 228.731 975.625 224.225 954.343 215.212C933.061 206.199 916.296 193.185 904.049 176.17C891.802 159.154 885.678 138.75 885.678 114.957C885.678 91.0915 891.852 70.6872 904.2 53.7436C916.547 36.728 933.362 23.7139 954.644 14.7014C975.926 5.68888 1000.02 1.18262 1026.92 1.18262C1044.09 1.18262 1060.05 2.91302 1074.81 6.37383C1089.56 9.83464 1102.72 14.9177 1114.26 21.623C1125.8 28.2562 1135.29 36.4036 1142.72 46.065C1150.25 55.6543 1155.17 66.6135 1157.48 78.9427Z" fill="white"/>
<path d="M1195.08 37.8456V4.21083H1441.13V37.8456H1345.82V225.703H1290.4V37.8456H1195.08Z" fill="white"/>
<path d="M1526.36 89.7577H1604.66C1628.25 89.7577 1648.48 92.5335 1665.35 98.0853C1682.31 103.565 1695.31 111.316 1704.35 121.338C1713.38 131.359 1717.9 143.148 1717.9 156.703C1717.9 170.33 1713.38 182.334 1704.35 192.717C1695.31 203.027 1682.31 211.102 1665.35 216.942C1648.48 222.783 1628.25 225.703 1604.66 225.703H1489.17V4.21083H1545.18V192.825H1604.66C1617.11 192.825 1627.65 191.131 1636.29 187.742C1644.92 184.353 1651.44 179.883 1655.86 174.331C1660.38 168.779 1662.64 162.759 1662.64 156.27C1662.64 146.897 1657.62 138.93 1647.58 132.369C1637.64 125.736 1623.34 122.419 1604.66 122.419H1526.36V89.7577Z" fill="white"/>
<path d="M1772.22 225.703V4.21083H1972.8V37.8456H1828.09V97.9771H1962.41V131.612H1828.09V192.068H1974V225.703H1772.22Z" fill="white"/>
</g>
</g>
<defs>
<clipPath id="clip0_2021_8343">
<rect width="1920" height="221" fill="white"/>
</clipPath>
<clipPath id="clip1_2021_8343">
<rect width="2221" height="211" fill="white" transform="translate(0 5.2998)"/>
</clipPath>
</defs>
</svg>
