<svg width="11" height="11" viewBox="0 0 11 11" fill="none" xmlns="http://www.w3.org/2000/svg">
<path d="M2.35156 5.24991C2.35156 4.70635 2.48414 4.21085 2.74929 3.76341C3.01444 3.31596 3.37074 2.95966 3.81818 2.69451C4.26563 2.42936 4.76113 2.29679 5.30469 2.29679C5.77533 2.29679 6.20952 2.39788 6.60724 2.60005C7.00829 2.80223 7.33973 3.07898 7.60156 3.43031C7.8634 3.77832 8.02581 4.17273 8.08878 4.61355H6.88565C6.81937 4.27216 6.63542 3.99376 6.33381 3.77832C6.0322 3.55957 5.68916 3.4502 5.30469 3.4502C4.97325 3.4502 4.67164 3.5314 4.39986 3.6938C4.12808 3.85621 3.91098 4.0733 3.74858 4.34508C3.58617 4.61686 3.50497 4.91847 3.50497 5.24991C3.50497 5.58135 3.58617 5.88296 3.74858 6.15474C3.91098 6.42652 4.12808 6.64361 4.39986 6.80602C4.67164 6.96842 4.97325 7.04963 5.30469 7.04963C5.68916 7.04963 6.01397 6.94191 6.27912 6.72647C6.54759 6.50772 6.71662 6.22766 6.78622 5.88627H7.98935C7.92637 6.32709 7.77225 6.72316 7.52699 7.07448C7.28172 7.4225 6.96686 7.69759 6.58239 7.89977C6.20123 8.10195 5.77533 8.20304 5.30469 8.20304C4.76113 8.20304 4.26563 8.07046 3.81818 7.80531C3.37074 7.54016 3.01444 7.18386 2.74929 6.73642C2.48414 6.28897 2.35156 5.79347 2.35156 5.24991ZM5.25497 10.4999C4.53243 10.4999 3.85298 10.364 3.21662 10.0922C2.58357 9.82046 2.02509 9.44428 1.54119 8.96369C1.06061 8.47979 0.682765 7.92131 0.40767 7.28826C0.13589 6.65521 0.00165721 5.97576 0.00497164 5.24991C0.00828599 4.52406 0.145833 3.84461 0.417614 3.21156C0.692708 2.57851 1.07055 2.02169 1.55114 1.5411C2.03172 1.0572 2.58854 0.679362 3.22159 0.407581C3.85464 0.135801 4.53243 -8.89301e-05 5.25497 -8.89301e-05C5.98082 -8.89301e-05 6.66027 0.135801 7.29332 0.407581C7.92969 0.679362 8.48651 1.0572 8.96378 1.5411C9.44437 2.02169 9.82055 2.57851 10.0923 3.21156C10.3641 3.84461 10.5017 4.52406 10.505 5.24991C10.5083 5.97576 10.3741 6.65521 10.1023 7.28826C9.83049 7.92131 9.45431 8.47979 8.97372 8.96369C8.49313 9.44428 7.93466 9.82046 7.2983 10.0922C6.66193 10.364 5.98082 10.4999 5.25497 10.4999ZM5.25497 9.3465C5.82173 9.3465 6.35369 9.24044 6.85085 9.02832C7.34801 8.8162 7.78385 8.52288 8.15838 8.14835C8.53291 7.77382 8.82623 7.33964 9.03835 6.84579C9.25047 6.34863 9.35488 5.81833 9.35156 5.25488C9.34825 4.68812 9.24053 4.15616 9.02841 3.659C8.81629 3.16184 8.52296 2.726 8.14844 2.35147C7.77391 1.97695 7.33973 1.68362 6.84588 1.4715C6.35204 1.25938 5.82173 1.15332 5.25497 1.15332C4.69152 1.15332 4.16288 1.25938 3.66903 1.4715C3.17519 1.68362 2.741 1.9786 2.36648 2.35645C1.99195 2.73097 1.69697 3.16681 1.48153 3.66397C1.26941 4.15782 1.1617 4.68812 1.15838 5.25488C1.15507 5.81502 1.25947 6.34366 1.47159 6.84082C1.68371 7.33466 1.97704 7.76885 2.35156 8.14338C2.7294 8.5179 3.16525 8.81288 3.65909 9.02832C4.15625 9.24044 4.68821 9.3465 5.25497 9.3465Z" fill="#909BB1"/>
</svg>
