<svg width="40" height="40" viewBox="0 0 40 40" fill="none" xmlns="http://www.w3.org/2000/svg">
<rect width="40" height="40" rx="20" fill="url(#paint0_linear_351_3336)" fill-opacity="0.2"/>
<path d="M20 12.25C24.2812 12.25 27.75 15.7188 27.75 20C27.75 24.2812 24.2812 27.75 20 27.75C15.7188 27.75 12.25 24.2812 12.25 20C12.25 15.7188 15.7188 12.25 20 12.25ZM23.7812 17.5625C23.9062 17.0625 23.5938 16.8438 23.25 16.9688L15.7812 19.8438C15.2812 20.0312 15.2812 20.3438 15.6875 20.4688L17.5938 21.0625L22.0312 18.25C22.25 18.125 22.4375 18.2188 22.2812 18.3438L18.6875 21.5938L18.5625 23.5625C18.75 23.5625 18.8438 23.4688 18.9375 23.375L19.875 22.4688L21.8125 23.9062C22.1875 24.0938 22.4375 24 22.5312 23.5625L23.7812 17.5625Z" fill="url(#paint1_linear_351_3336)"/>
<defs>
<linearGradient id="paint0_linear_351_3336" x1="19.9804" y1="-2.82258" x2="19.9804" y2="37.1774" gradientUnits="userSpaceOnUse">
<stop stop-color="#F9F295"/>
<stop offset="0.326923" stop-color="#E0AA3E"/>
<stop offset="0.620192" stop-color="#F9F295"/>
<stop offset="0.884615" stop-color="#B88A44"/>
</linearGradient>
<linearGradient id="paint1_linear_351_3336" x1="20.1828" y1="10.871" x2="20.1907" y2="29.4" gradientUnits="userSpaceOnUse">
<stop stop-color="#F9F295"/>
<stop offset="0.326923" stop-color="#E0AA3E"/>
<stop offset="0.620192" stop-color="#F9F295"/>
<stop offset="0.884615" stop-color="#B88A44"/>
</linearGradient>
</defs>
</svg>
